<svg xmlns="http://www.w3.org/2000/svg" version="1.1" xmlns:xlink="http://www.w3.org/1999/xlink" xmlns:svgjs="http://svgjs.dev/svgjs" viewBox="0 0 7.872459202669022 1.6976271676317967"><g transform="matrix(1,0,0,1,2.089120284522472,0.3126807713158982)"><rect width="7.872459202669022" height="1.6976271676317967" x="-2.0891202845224717" y="-0.3126807713158982" fill="#ffffff"></rect><g><path d=" M 0.831298828125 1.072265625 L 0.831298828125 1.0693359375 Q 0.832763671875 1.065673828125 0.83349609375 1.058349609375 Q 0.834228515625 1.051025390625 0.834228515625 1.045166015625 Q 0.834228515625 1.0224609375 0.8280029296875 0.9949951171875 Q 0.82177734375 0.967529296875 0.80419921875 0.926513671875 L 0.715576171875 0.727294921875 Q 0.674560546875 0.725830078125 0.6064453125 0.725830078125 Q 0.538330078125 0.725830078125 0.459228515625 0.725830078125 Q 0.4013671875 0.725830078125 0.3475341796875 0.725830078125 Q 0.293701171875 0.725830078125 0.25048828125 0.727294921875 L 0.166259765625 0.920654296875 Q 0.1552734375 0.94775390625 0.142822265625 0.97998046875 Q 0.13037109375 1.01220703125 0.13037109375 1.045166015625 Q 0.13037109375 1.0546875 0.1318359375 1.0609130859375 Q 0.13330078125 1.067138671875 0.134765625 1.0693359375 L 0.134765625 1.072265625 L -0.0146484375 1.072265625 L -0.0146484375 1.0693359375 Q -0.00146484375 1.055419921875 0.018310546875 1.0198974609375 Q 0.0380859375 0.984375 0.0615234375 0.930908203125 L 0.481201171875 0 L 0.539794921875 0 L 0.9375 0.89501953125 Q 0.951416015625 0.926513671875 0.9664306640625 0.9561767578125 Q 0.9814453125 0.98583984375 0.99462890625 1.00927734375 Q 1.0078125 1.03271484375 1.01806640625 1.048828125 Q 1.0283203125 1.06494140625 1.031982421875 1.0693359375 L 1.031982421875 1.072265625 L 0.831298828125 1.072265625 Z M 0.356689453125 0.662841796875 Q 0.399169921875 0.662841796875 0.44384765625 0.6624755859375 Q 0.488525390625 0.662109375 0.5313720703125 0.6617431640625 Q 0.57421875 0.661376953125 0.61376953125 0.6610107421875 Q 0.6533203125 0.66064453125 0.685546875 0.659912109375 L 0.479736328125 0.19482421875 L 0.277587890625 0.662841796875 L 0.356689453125 0.662841796875 Z M 1.260498046875 0.81591796875 Q 1.260498046875 0.91259765625 1.2989501953125 0.9580078125 Q 1.33740234375 1.00341796875 1.402587890625 1.00341796875 Q 1.426025390625 1.00341796875 1.455322265625 0.9935302734375 Q 1.484619140625 0.983642578125 1.5157470703125 0.9671630859375 Q 1.546875 0.95068359375 1.5780029296875 0.9287109375 Q 1.609130859375 0.90673828125 1.635498046875 0.8818359375 Q 1.636962890625 0.860595703125 1.636962890625 0.8367919921875 Q 1.636962890625 0.81298828125 1.636962890625 0.785888671875 L 1.636962890625 0.608642578125 Q 1.636962890625 0.54638671875 1.6351318359375 0.4998779296875 Q 1.63330078125 0.453369140625 1.6307373046875 0.419677734375 Q 1.628173828125 0.385986328125 1.6241455078125 0.36328125 Q 1.6201171875 0.340576171875 1.61572265625 0.3251953125 L 1.61572265625 0.322265625 L 1.784912109375 0.322265625 L 1.784912109375 0.3251953125 Q 1.780517578125 0.340576171875 1.77685546875 0.36328125 Q 1.773193359375 0.385986328125 1.770263671875 0.419677734375 Q 1.767333984375 0.453369140625 1.765869140625 0.4998779296875 Q 1.764404296875 0.54638671875 1.764404296875 0.608642578125 L 1.764404296875 0.785888671875 Q 1.764404296875 0.84814453125 1.765869140625 0.8946533203125 Q 1.767333984375 0.941162109375 1.770263671875 0.974853515625 Q 1.773193359375 1.008544921875 1.77685546875 1.03125 Q 1.780517578125 1.053955078125 1.784912109375 1.0693359375 L 1.784912109375 1.072265625 L 1.61572265625 1.072265625 L 1.61572265625 1.0693359375 Q 1.6201171875 1.051025390625 1.6248779296875 1.0224609375 Q 1.629638671875 0.993896484375 1.6318359375 0.94775390625 Q 1.601806640625 0.973388671875 1.5670166015625 0.998291015625 Q 1.5322265625 1.023193359375 1.4945068359375 1.04296875 Q 1.456787109375 1.062744140625 1.4183349609375 1.0748291015625 Q 1.3798828125 1.0869140625 1.342529296875 1.0869140625 Q 1.285400390625 1.0869140625 1.2454833984375 1.067138671875 Q 1.20556640625 1.04736328125 1.1802978515625 1.01513671875 Q 1.155029296875 0.98291015625 1.1436767578125 0.94189453125 Q 1.13232421875 0.90087890625 1.13232421875 0.857666015625 L 1.13232421875 0.608642578125 Q 1.13232421875 0.54638671875 1.130859375 0.4998779296875 Q 1.12939453125 0.453369140625 1.12646484375 0.419677734375 Q 1.12353515625 0.385986328125 1.119873046875 0.36328125 Q 1.1162109375 0.340576171875 1.11181640625 0.3251953125 L 1.11181640625 0.322265625 L 1.281005859375 0.322265625 L 1.281005859375 0.3251953125 Q 1.276611328125 0.340576171875 1.27294921875 0.36328125 Q 1.269287109375 0.385986328125 1.266357421875 0.419677734375 Q 1.263427734375 0.453369140625 1.261962890625 0.4998779296875 Q 1.260498046875 0.54638671875 1.260498046875 0.608642578125 L 1.260498046875 0.81591796875 Z M 1.99658203125 0.608642578125 Q 1.99658203125 0.54638671875 1.9947509765625 0.4998779296875 Q 1.992919921875 0.453369140625 1.9903564453125 0.419677734375 Q 1.98779296875 0.385986328125 1.9837646484375 0.36328125 Q 1.979736328125 0.340576171875 1.975341796875 0.3251953125 L 1.975341796875 0.322265625 L 2.14453125 0.322265625 L 2.14453125 0.3251953125 Q 2.138671875 0.342041015625 2.1346435546875 0.3662109375 Q 2.130615234375 0.390380859375 2.12841796875 0.428466796875 Q 2.155517578125 0.40576171875 2.184814453125 0.3837890625 Q 2.214111328125 0.36181640625 2.244873046875 0.344970703125 Q 2.275634765625 0.328125 2.3074951171875 0.31787109375 Q 2.33935546875 0.3076171875 2.37158203125 0.3076171875 Q 2.391357421875 0.3076171875 2.406005859375 0.3094482421875 Q 2.420654296875 0.311279296875 2.432373046875 0.3145751953125 Q 2.444091796875 0.31787109375 2.45361328125 0.3218994140625 Q 2.463134765625 0.325927734375 2.471923828125 0.32958984375 L 2.43603515625 0.469482421875 L 2.423583984375 0.466552734375 Q 2.414794921875 0.434326171875 2.390625 0.4149169921875 Q 2.366455078125 0.3955078125 2.32470703125 0.3955078125 Q 2.302001953125 0.3955078125 2.277099609375 0.403564453125 Q 2.252197265625 0.41162109375 2.2265625 0.4259033203125 Q 2.200927734375 0.440185546875 2.17529296875 0.4588623046875 Q 2.149658203125 0.4775390625 2.12548828125 0.498046875 Q 2.1240234375 0.519287109375 2.1240234375 0.544189453125 Q 2.1240234375 0.569091796875 2.1240234375 0.596923828125 L 2.1240234375 0.785888671875 Q 2.1240234375 0.84814453125 2.12548828125 0.8946533203125 Q 2.126953125 0.941162109375 2.1298828125 0.974853515625 Q 2.1328125 1.008544921875 2.136474609375 1.03125 Q 2.14013671875 1.053955078125 2.14453125 1.0693359375 L 2.14453125 1.072265625 L 1.975341796875 1.072265625 L 1.975341796875 1.0693359375 Q 1.979736328125 1.053955078125 1.9837646484375 1.03125 Q 1.98779296875 1.008544921875 1.9903564453125 0.974853515625 Q 1.992919921875 0.941162109375 1.9947509765625 0.8946533203125 Q 1.99658203125 0.84814453125 1.99658203125 0.785888671875 L 1.99658203125 0.608642578125 Z M 2.530517578125 0.69580078125 Q 2.530517578125 0.613037109375 2.561279296875 0.5423583984375 Q 2.592041015625 0.4716796875 2.6458740234375 0.419677734375 Q 2.69970703125 0.36767578125 2.77294921875 0.33837890625 Q 2.84619140625 0.30908203125 2.930419921875 0.30908203125 Q 3.01318359375 0.30908203125 3.0860595703125 0.3365478515625 Q 3.158935546875 0.364013671875 3.213134765625 0.41455078125 Q 3.267333984375 0.465087890625 3.2984619140625 0.53759765625 Q 3.32958984375 0.610107421875 3.32958984375 0.7001953125 Q 3.32958984375 0.775634765625 3.30322265625 0.84521484375 Q 3.27685546875 0.914794921875 3.2255859375 0.96826171875 Q 3.17431640625 1.021728515625 3.0999755859375 1.0535888671875 Q 3.025634765625 1.08544921875 2.928955078125 1.08544921875 Q 2.846923828125 1.08544921875 2.7744140625 1.058349609375 Q 2.701904296875 1.03125 2.647705078125 0.980712890625 Q 2.593505859375 0.93017578125 2.56201171875 0.8580322265625 Q 2.530517578125 0.785888671875 2.530517578125 0.69580078125 Z M 2.94580078125 1.031982421875 Q 2.997802734375 1.031982421875 3.0413818359375 1.011474609375 Q 3.0849609375 0.990966796875 3.116455078125 0.9521484375 Q 3.14794921875 0.913330078125 3.16552734375 0.857666015625 Q 3.18310546875 0.802001953125 3.18310546875 0.731689453125 Q 3.18310546875 0.652587890625 3.166259765625 0.5848388671875 Q 3.1494140625 0.51708984375 3.1160888671875 0.4676513671875 Q 3.082763671875 0.418212890625 3.0322265625 0.390380859375 Q 2.981689453125 0.362548828125 2.914306640625 0.362548828125 Q 2.8623046875 0.362548828125 2.819091796875 0.3826904296875 Q 2.77587890625 0.40283203125 2.7440185546875 0.44091796875 Q 2.712158203125 0.47900390625 2.694580078125 0.5343017578125 Q 2.677001953125 0.589599609375 2.677001953125 0.659912109375 Q 2.677001953125 0.739013671875 2.6942138671875 0.80712890625 Q 2.71142578125 0.875244140625 2.7451171875 0.9254150390625 Q 2.77880859375 0.9755859375 2.8289794921875 1.0037841796875 Q 2.879150390625 1.031982421875 2.94580078125 1.031982421875 Z M 3.989501953125 0.57861328125 Q 3.989501953125 0.5302734375 3.9796142578125 0.4951171875 Q 3.9697265625 0.4599609375 3.9510498046875 0.4368896484375 Q 3.932373046875 0.413818359375 3.906005859375 0.4024658203125 Q 3.879638671875 0.39111328125 3.847412109375 0.39111328125 Q 3.825439453125 0.39111328125 3.79833984375 0.39990234375 Q 3.771240234375 0.40869140625 3.7423095703125 0.4237060546875 Q 3.71337890625 0.438720703125 3.6844482421875 0.45849609375 Q 3.655517578125 0.478271484375 3.6298828125 0.5009765625 Q 3.62841796875 0.5244140625 3.62841796875 0.5511474609375 Q 3.62841796875 0.577880859375 3.62841796875 0.608642578125 L 3.62841796875 0.785888671875 Q 3.62841796875 0.84814453125 3.6298828125 0.8946533203125 Q 3.63134765625 0.941162109375 3.63427734375 0.974853515625 Q 3.63720703125 1.008544921875 3.640869140625 1.03125 Q 3.64453125 1.053955078125 3.64892578125 1.0693359375 L 3.64892578125 1.072265625 L 3.479736328125 1.072265625 L 3.479736328125 1.0693359375 Q 3.484130859375 1.053955078125 3.4881591796875 1.03125 Q 3.4921875 1.008544921875 3.4947509765625 0.974853515625 Q 3.497314453125 0.941162109375 3.4991455078125 0.8946533203125 Q 3.5009765625 0.84814453125 3.5009765625 0.785888671875 L 3.5009765625 0.608642578125 Q 3.5009765625 0.54638671875 3.4991455078125 0.4998779296875 Q 3.497314453125 0.453369140625 3.4947509765625 0.419677734375 Q 3.4921875 0.385986328125 3.4881591796875 0.36328125 Q 3.484130859375 0.340576171875 3.479736328125 0.3251953125 L 3.479736328125 0.322265625 L 3.64892578125 0.322265625 L 3.64892578125 0.3251953125 Q 3.64306640625 0.342041015625 3.6397705078125 0.3680419921875 Q 3.636474609375 0.39404296875 3.6328125 0.43359375 Q 3.662109375 0.41015625 3.69580078125 0.387451171875 Q 3.7294921875 0.36474609375 3.7650146484375 0.34716796875 Q 3.800537109375 0.32958984375 3.83642578125 0.318603515625 Q 3.872314453125 0.3076171875 3.907470703125 0.3076171875 Q 3.94921875 0.3076171875 3.9814453125 0.318603515625 Q 4.013671875 0.32958984375 4.037841796875 0.3486328125 Q 4.06201171875 0.36767578125 4.0784912109375 0.393310546875 Q 4.094970703125 0.4189453125 4.103759765625 0.4482421875 Q 4.1337890625 0.422607421875 4.1693115234375 0.3973388671875 Q 4.204833984375 0.3720703125 4.2425537109375 0.352294921875 Q 4.2802734375 0.33251953125 4.3194580078125 0.320068359375 Q 4.358642578125 0.3076171875 4.39599609375 0.3076171875 Q 4.453125 0.3076171875 4.4930419921875 0.327392578125 Q 4.532958984375 0.34716796875 4.5582275390625 0.37939453125 Q 4.58349609375 0.41162109375 4.5948486328125 0.4530029296875 Q 4.606201171875 0.494384765625 4.606201171875 0.536865234375 L 4.606201171875 0.785888671875 Q 4.606201171875 0.84814453125 4.607666015625 0.8946533203125 Q 4.609130859375 0.941162109375 4.612060546875 0.974853515625 Q 4.614990234375 1.008544921875 4.6190185546875 1.03125 Q 4.623046875 1.053955078125 4.62744140625 1.0693359375 L 4.62744140625 1.072265625 L 4.45751953125 1.072265625 L 4.45751953125 1.0693359375 Q 4.4619140625 1.053955078125 4.4659423828125 1.03125 Q 4.469970703125 1.008544921875 4.472900390625 0.974853515625 Q 4.475830078125 0.941162109375 4.477294921875 0.8946533203125 Q 4.478759765625 0.84814453125 4.478759765625 0.785888671875 L 4.478759765625 0.57861328125 Q 4.478759765625 0.48193359375 4.43994140625 0.4365234375 Q 4.401123046875 0.39111328125 4.3359375 0.39111328125 Q 4.313232421875 0.39111328125 4.2857666015625 0.39990234375 Q 4.25830078125 0.40869140625 4.22900390625 0.424072265625 Q 4.19970703125 0.439453125 4.17041015625 0.4595947265625 Q 4.14111328125 0.479736328125 4.115478515625 0.50244140625 Q 4.116943359375 0.51123046875 4.116943359375 0.52001953125 Q 4.116943359375 0.52880859375 4.116943359375 0.536865234375 L 4.116943359375 0.785888671875 Q 4.116943359375 0.84814453125 4.1187744140625 0.8946533203125 Q 4.12060546875 0.941162109375 4.1231689453125 0.974853515625 Q 4.125732421875 1.008544921875 4.1297607421875 1.03125 Q 4.1337890625 1.053955078125 4.13818359375 1.0693359375 L 4.13818359375 1.072265625 L 3.968994140625 1.072265625 L 3.968994140625 1.0693359375 Q 3.973388671875 1.053955078125 3.97705078125 1.03125 Q 3.980712890625 1.008544921875 3.983642578125 0.974853515625 Q 3.986572265625 0.941162109375 3.988037109375 0.8946533203125 Q 3.989501953125 0.84814453125 3.989501953125 0.785888671875 L 3.989501953125 0.57861328125 Z M 4.775390625 0.856201171875 Q 4.775390625 0.79833984375 4.7991943359375 0.755859375 Q 4.822998046875 0.71337890625 4.862548828125 0.683349609375 Q 4.902099609375 0.6533203125 4.95263671875 0.6346435546875 Q 5.003173828125 0.615966796875 5.057373046875 0.6053466796875 Q 5.111572265625 0.5947265625 5.164306640625 0.5906982421875 Q 5.217041015625 0.586669921875 5.260986328125 0.5859375 L 5.260986328125 0.548583984375 Q 5.260986328125 0.500244140625 5.24853515625 0.465087890625 Q 5.236083984375 0.429931640625 5.21337890625 0.4068603515625 Q 5.190673828125 0.3837890625 5.1588134765625 0.3724365234375 Q 5.126953125 0.361083984375 5.0888671875 0.361083984375 Q 5.0625 0.361083984375 5.036865234375 0.365478515625 Q 5.01123046875 0.369873046875 4.9837646484375 0.380126953125 Q 4.956298828125 0.390380859375 4.9259033203125 0.407958984375 Q 4.8955078125 0.425537109375 4.8603515625 0.45263671875 L 4.85302734375 0.4482421875 L 4.90283203125 0.344970703125 Q 4.927001953125 0.333984375 4.950439453125 0.3270263671875 Q 4.973876953125 0.320068359375 4.998046875 0.315673828125 Q 5.022216796875 0.311279296875 5.0474853515625 0.3094482421875 Q 5.07275390625 0.3076171875 5.1005859375 0.3076171875 Q 5.177490234375 0.3076171875 5.2320556640625 0.3262939453125 Q 5.28662109375 0.344970703125 5.3214111328125 0.3775634765625 Q 5.356201171875 0.41015625 5.372314453125 0.4537353515625 Q 5.388427734375 0.497314453125 5.388427734375 0.547119140625 L 5.388427734375 0.785888671875 Q 5.388427734375 0.84814453125 5.3902587890625 0.8946533203125 Q 5.39208984375 0.941162109375 5.3946533203125 0.974853515625 Q 5.397216796875 1.008544921875 5.4012451171875 1.03125 Q 5.4052734375 1.053955078125 5.40966796875 1.0693359375 L 5.40966796875 1.072265625 L 5.247802734375 1.072265625 L 5.247802734375 1.0693359375 Q 5.25146484375 1.0576171875 5.2532958984375 1.04296875 Q 5.255126953125 1.0283203125 5.256591796875 1.0078125 Q 5.2412109375 1.02099609375 5.2203369140625 1.034912109375 Q 5.199462890625 1.048828125 5.1727294921875 1.0601806640625 Q 5.14599609375 1.071533203125 5.1134033203125 1.0784912109375 Q 5.080810546875 1.08544921875 5.0419921875 1.08544921875 Q 4.91455078125 1.08544921875 4.844970703125 1.0257568359375 Q 4.775390625 0.966064453125 4.775390625 0.856201171875 Z M 5.260986328125 0.64306640625 Q 5.1943359375 0.643798828125 5.1328125 0.6507568359375 Q 5.0712890625 0.65771484375 5.0240478515625 0.6796875 Q 4.976806640625 0.70166015625 4.9486083984375 0.7423095703125 Q 4.92041015625 0.782958984375 4.92041015625 0.850341796875 Q 4.92041015625 0.936767578125 4.963623046875 0.982177734375 Q 5.0068359375 1.027587890625 5.0830078125 1.027587890625 Q 5.1181640625 1.027587890625 5.1470947265625 1.0177001953125 Q 5.176025390625 1.0078125 5.1983642578125 0.9927978515625 Q 5.220703125 0.977783203125 5.236083984375 0.9598388671875 Q 5.25146484375 0.94189453125 5.259521484375 0.925048828125 Q 5.260986328125 0.897216796875 5.260986328125 0.8631591796875 Q 5.260986328125 0.8291015625 5.260986328125 0.785888671875 L 5.260986328125 0.64306640625 Z" fill="#262626" fill-rule="nonzero"></path></g><g></g><g clip-path="url(&quot;#SvgjsClipPath1023&quot;)"><g clip-path="url(&quot;#SvgjsClipPath1008&quot;)"><path d=" M -0.517081533120384 1.0841496758564197 L -0.731395440424679 1.0841496758564197 L -0.731395440424679 1.0841496758564197 L -0.7313954404246792 0.8763873031178903 C -0.7313954404246792 0.8660674515950206 -0.7272958953694393 0.8561702743231008 -0.7199986583767799 0.8488730373304414 C -0.7127014213841203 0.8415758003377819 -0.7028042441122007 0.8374762552825421 -0.6924843925893311 0.8374762552825421 L -0.5560152036579622 0.8374762552825421 C -0.5345252253385628 0.8374762552825421 -0.5171041558226142 0.854897324798491 -0.5171041558226142 0.8763873031178903 L -0.5171041558226142 1.0841496758564197 L -0.5171041558226142 1.0841496758564197 Z" fill="#fbe5c1" transform="matrix(1,0,0,1,0,0)" fill-rule="nonzero"></path></g><g clip-path="url(&quot;#SvgjsClipPath1008&quot;)"><path d=" M -1.150788667983043 1.0841496758564189 L -1.365102575287338 1.0841496758564193 L -1.365102575287338 1.0841496758564193 L -1.365102575287338 0.7241319925705292 C -1.3651049761155354 0.7120654303231326 -1.3603126162160963 0.7004923937766113 -1.3517802680565003 0.6919600456170396 C -1.343247919896904 0.6834276974574681 -1.3316748833503693 0.678635337558062 -1.3196083211030374 0.6786377383862937 L -1.1962648240054947 0.6786377383862936 C -1.171145805866423 0.678642735579912 -1.1507861688269996 0.6990084495182624 -1.150788667983043 0.724127468030083 L -1.150788667983043 1.084145151315973 L -1.150788667983043 1.0841496758564189 Z" fill="#e8a941" transform="matrix(1,0,0,1,0,0)" fill-rule="nonzero"></path></g><g clip-path="url(&quot;#SvgjsClipPath1008&quot;)"><path d=" M -1.4676286617930345 1.0841496758564193 L -1.6819425690973295 1.0841496758564193 L -1.6819425690973295 1.0841496758564193 L -1.6819425690973295 0.4072784251391997 C -1.6819437691508592 0.39398783243722074 -1.67666494294567 0.3812411772130133 -1.6672674989552012 0.3718428846948597 C -1.6578700549647323 0.36244459217670616 -1.645123876414418 0.35716461510545705 -1.6318332836582323 0.35716461515962805 L -1.5177379472321602 0.35716461515962805 C -1.490063353059213 0.35716461515962805 -1.4676286617930345 0.37959930642580636 -1.4676286617930345 0.4072739005987537 L -1.4676286617930345 1.0841496758564193 L -1.4676286617930345 1.0841496758564193 Z" fill="#bdbfc3" transform="matrix(1,0,0,1,0,0)" fill-rule="nonzero"></path></g><g clip-path="url(&quot;#SvgjsClipPath1008&quot;)"><path d=" M -0.833930576011268 1.0841496758564197 L -1.0482444833155629 1.0841496758564197 L -1.0482444833155629 1.0841496758564197 L -1.0482444833155629 0.5992411026403999 C -1.0482456833458906 0.5841105203174868 -1.0422362337769657 0.5695991705495248 -1.031538144929046 0.5588993846697348 C -1.0208400560811264 0.5481995987899445 -1.0063296596957385 0.5421878475518682 -0.9911990773727911 0.5421866476167091 L -0.8909805064945128 0.5421866476167091 C -0.8758499241861566 0.542186647616709 -0.861339051137129 0.5481972480354904 -0.8506401137835892 0.5588961853890302 C -0.8399411764300494 0.5695951227425701 -0.833930576011268 0.5841059957915976 -0.833930576011268 0.5992365780999538 L -0.833930576011268 1.0841496758564197 L -0.833930576011268 1.0841496758564197 Z" fill="#bdbfc3" transform="matrix(1,0,0,1,0,0)" fill-rule="nonzero"></path></g><g clip-path="url(&quot;#SvgjsClipPath1008&quot;)"><path d=" M -0.4158358915608975 1.098433650044349 L -1.786771646690025 1.098433650044349 C -1.795517568099083 1.098433650044349 -1.8026075382509226 1.0913436798925091 -1.8026075382509226 1.0825977584834514 C -1.8026075382509226 1.0738518370743937 -1.795517568099083 1.0667618669225538 -1.786771646690025 1.0667618669225538 L -0.4158358915608975 1.0667618669225538 C -0.40708997015183956 1.0667618669225538 -0.3999999999999999 1.0738518370743937 -0.3999999999999999 1.0825977584834514 C -0.3999999999999999 1.0913436798925091 -0.40708997015183956 1.098433650044349 -0.4158358915608975 1.098433650044349 Z" fill="#262626" transform="matrix(1,0,0,1,0,0)" fill-rule="nonzero"></path></g><g clip-path="url(&quot;#SvgjsClipPath1008&quot;)"><path d=" M -0.6172593831346218 0.6009740016312064 L -0.9341219996468433 0.22569051888061115 L -1.2426187408744647 0.43729875099821564 C -1.2491352863347123 0.44177049398420115 -1.257951255396359 0.44075296974077405 -1.2632777925507672 0.4349143181831891 L -1.576651988379145 0.09147002655088976 L -1.5532555897330302 0.07012324472679991 L -1.2491702754402305 0.40338732035566505 L -0.9402301292489037 0.19146237040684264 C -0.9335238324102779 0.186863984909433 -0.9244247350043879 0.18809205995153463 -0.919177442553802 0.19430378180691227 L -0.5930757144509085 0.5805366524367567 Z" fill="#262626" transform="matrix(1,0,0,1,0,0)" fill-rule="nonzero"></path></g><g clip-path="url(&quot;#SvgjsClipPath1008&quot;)"><path d=" M -0.5328857528981599 0.5907575893042044 C -0.5328857528981599 0.6306739782411244 -0.5652443730451762 0.6630325983881407 -0.6051607619820962 0.6630325983881407 C -0.6450771509190161 0.6630325983881407 -0.6774357710660324 0.6306739782411244 -0.6774357710660324 0.5907575893042044 C -0.6774357710660324 0.5508412003672846 -0.6450771509190161 0.5184825802202682 -0.6051607619820962 0.5184825802202682 C -0.5652443730451762 0.5184825802202682 -0.5328857528981599 0.5508412003672846 -0.5328857528981599 0.5907575893042044 Z" fill="#fbe5c1" transform="matrix(1,0,0,1,0,0)" fill-rule="nonzero"></path></g><g clip-path="url(&quot;#SvgjsClipPath1008&quot;)"><path d=" M -1.4594238510992303 0.0637169795811331 C -1.4499718581020327 0.12202396138259627 -1.4895766436827684 0.17695345238755864 -1.5478836254842316 0.1864054453847563 C -1.6061906072856946 0.19585743838195402 -1.661120098290657 0.1562526528012183 -1.6705720912878548 0.0979456709997551 C -1.6800240842850525 0.03963868919829189 -1.6404192987043167 -0.015290801806670444 -1.5821123169028535 -0.024742794803868123 C -1.5238053351013903 -0.0341947878010658 -1.468875844096428 0.005409997779669891 -1.4594238510992303 0.0637169795811331 Z" fill="#bdbfc3" transform="matrix(1,0,0,1,0,0)" fill-rule="nonzero"></path></g><g clip-path="url(&quot;#SvgjsClipPath1008&quot;)"><path d=" M -1.2090605477289391 0.38172021541632806 C -1.1855778737482556 0.40520288939701166 -1.1855778737482556 0.44327581871824784 -1.2090605477289391 0.46675849269893144 C -1.2325432217096228 0.49024116667961504 -1.270616151030859 0.49024116667961504 -1.2940988250115426 0.46675849269893144 C -1.317581498992226 0.44327581871824784 -1.317581498992226 0.4052028893970116 -1.2940988250115426 0.38172021541632806 C -1.270616151030859 0.35823754143564446 -1.2325432217096228 0.35823754143564446 -1.2090605477289391 0.38172021541632806 Z" fill="#e8a941" transform="matrix(1,0,0,1,0,0)" fill-rule="nonzero"></path></g><g clip-path="url(&quot;#SvgjsClipPath1008&quot;)"><path d=" M -0.8254732536858368 0.17954615990535008 C -0.8116802402908179 0.23797213877374784 -0.8478624004073134 0.2965171875692499 -0.9062883792757112 0.31031020096426903 C -0.964714358144109 0.3241032143592881 -1.0232594069396113 0.28792105424279235 -1.03705242033463 0.22949507537439462 C -1.0508454337296493 0.17106909650599686 -1.0146632736131536 0.11252404771049479 -0.9562372947447558 0.0987310343154757 C -0.8978113158763581 0.0849380209204566 -0.8392662670808559 0.12112018103695232 -0.8254732536858368 0.17954615990535008 Z" fill="#bdbfc3" transform="matrix(1,0,0,1,0,0)" fill-rule="nonzero"></path></g></g></g><defs><clipPath id="SvgjsClipPath1023"><path d=" M -1.8026075382509226 -0.026168025044348897 h 1.4026075382509227 v 1.1246016750886978 h -1.4026075382509227 Z"></path></clipPath><clipPath id="SvgjsClipPath1008"><path d=" M -1.8026075382509226 -0.026168025044348897 L -0.3999999999999999 -0.026168025044348897 L -0.3999999999999999 1.098433650044349 L -1.8026075382509226 1.098433650044349 Z"></path></clipPath></defs></svg>